<svg width="416" height="224" viewBox="0 0 416 224" fill="none" xmlns="http://www.w3.org/2000/svg">
<path d="M142.44 37.15V53.86H125.43V42.88C125.43 38.56 124.56 35.44 121.09 35.44C117.62 35.44 116.92 38.57 116.92 42.88V106.31H99.91V24.11H116.92V36.26C118.29 27.97 122.69 22.69 130.28 22.69C138.33 22.69 142.43 29.32 142.43 37.16L142.44 37.15ZM189.21 44.39V86.15C189.21 99.82 181.16 107.71 167.95 107.71C154.74 107.71 146.69 99.81 146.69 86.15V44.39C146.69 30.57 154.89 22.67 167.95 22.67C181.01 22.67 189.21 30.57 189.21 44.39ZM172.2 42.87C172.2 38.55 171.33 35.43 167.86 35.43C164.39 35.43 163.69 38.56 163.69 42.87V87.66C163.69 91.98 164.56 94.95 167.86 94.95C171.33 94.95 172.2 91.97 172.2 87.66V42.87ZM223.83 22.67C216.24 22.67 211.83 27.95 210.47 36.24V24.09H193.46V106.29H210.47V42.86C210.47 38.54 211.34 35.42 214.64 35.42C218.11 35.42 218.98 38.55 218.98 42.86V106.29H235.99V37.14C235.99 29.3 231.89 22.67 223.84 22.67H223.83ZM266.45 24.09L260.78 61.98L255.11 24.09H238.1L253.43 111.06L250.54 130.39H264.71L283.45 24.09H266.44H266.45ZM30.99 83.62H20.03L17.01 106.3H0L17.01 0H34.02L51.03 106.3H34.02L31 83.62H30.99ZM29.1 69.44L25.7 43.93H25.32L21.92 69.44H29.1ZM343.6 22.67C336.01 22.67 331.6 27.95 330.24 36.24V37.14C330.24 29.3 326.14 22.67 318.09 22.67C310.5 22.67 306.09 27.95 304.73 36.24V24.09H287.72V106.29H304.73V42.86C304.73 38.54 305.6 35.42 308.9 35.42C312.37 35.42 313.24 38.55 313.24 42.86V106.29H330.25V42.86C330.25 38.54 331.12 35.42 334.42 35.42C337.89 35.42 338.76 38.55 338.76 42.86V106.29H355.77V37.14C355.77 29.3 351.67 22.67 343.62 22.67H343.6ZM62.35 138.89C49.14 138.89 41.09 146.79 41.09 160.45V202.21C41.09 216.03 49.14 223.93 62.35 223.93C75.56 223.93 83.61 216.03 83.61 202.21V160.45C83.61 146.78 75.41 138.89 62.35 138.89ZM66.6 203.73C66.6 208.05 65.73 211.17 62.43 211.17C58.96 211.17 58.09 208.04 58.09 203.73V158.94C58.09 154.62 58.96 151.65 62.43 151.65C65.9 151.65 66.6 154.63 66.6 158.94V203.73ZM130.38 140.31V222.51H113.37V210.36C112 218.65 107.6 223.93 100.01 223.93C91.96 223.93 87.86 217.3 87.86 209.46V140.31H104.87V203.74C104.87 208.06 105.74 211.18 109.21 211.18C112.68 211.18 113.38 208.05 113.38 203.74V140.31H130.39H130.38ZM177.15 153.37V222.52H160.14V159.09C160.14 154.77 159.27 151.65 155.8 151.65C152.33 151.65 151.63 154.78 151.63 159.09V222.52H134.62V140.32H151.63V152.47C153 144.18 157.4 138.9 164.99 138.9C173.04 138.9 177.14 145.53 177.14 153.37H177.15ZM347.94 138.89C334.73 138.89 326.68 146.79 326.68 160.45V202.21C326.68 216.03 334.73 223.93 347.94 223.93C361.15 223.93 369.2 216.03 369.2 202.21V160.45C369.2 146.78 361 138.89 347.94 138.89ZM352.19 203.73C352.19 208.05 351.32 211.17 348.02 211.17C344.55 211.17 343.68 208.04 343.68 203.73V158.94C343.68 154.62 344.55 151.65 348.02 151.65C351.49 151.65 352.19 154.63 352.19 158.94V203.73ZM415.97 153.37V222.52H398.96V159.09C398.96 154.77 398.09 151.65 394.62 151.65C391.15 151.65 390.45 154.78 390.45 159.09V222.52H373.44V140.32H390.45V152.47C391.82 144.18 396.22 138.9 403.81 138.9C411.86 138.9 415.96 145.53 415.96 153.37H415.97ZM322.43 222.51H305.42V140.31H322.43V222.51ZM322.43 116.21H305.42V133.22H322.43V116.21ZM206.92 116.21V152.46C205.55 144.17 201.15 138.89 193.56 138.89C185.51 138.89 181.41 145.52 181.41 153.36V209.45C181.41 217.29 185.51 223.92 193.56 223.92C201.15 223.92 205.56 218.64 206.92 210.35V222.5H223.93V116.2H206.92V116.21ZM206.92 203.73C206.92 208.05 206.05 211.17 202.75 211.17C199.28 211.17 198.41 208.04 198.41 203.73V159.08C198.41 154.76 199.28 151.64 202.75 151.64C206.22 151.64 206.92 154.77 206.92 159.08V203.73ZM295.5 154.48V205.5C295.5 207.07 296.77 208.33 298.33 208.33H301.16V222.5H292.66C284.83 222.5 278.49 216.15 278.49 208.33V154.47H272.82V140.3H278.49V130.38L286.99 116.21H295.49V140.3H301.16V154.47H295.49L295.5 154.48ZM249.44 138.89C236.23 138.89 228.18 146.79 228.18 160.45V168.65H245.19V159.08C245.19 154.76 246.06 151.64 249.53 151.64C253 151.64 253.7 154.77 253.7 159.08V159.58C253.7 162.05 252.62 164.4 250.75 166.02L235.06 179.57C230.7 183.34 228.19 188.82 228.19 194.59V209.46C228.19 217.3 232.29 223.93 240.34 223.93C247.93 223.93 252.34 218.65 253.7 210.36V222.51H270.71V160.45C270.71 146.78 262.51 138.89 249.45 138.89H249.44ZM249.53 211.18C246.06 211.18 245.19 208.05 245.19 203.74V189.62C245.45 187.01 246.42 184.52 248.01 182.42L253.69 174.95V203.73C253.69 208.05 252.82 211.17 249.52 211.17L249.53 211.18ZM19.84 130.39V161.57H36.85V175.74H19.84V222.51H2.83002V116.21H39.68V130.38H19.84V130.39ZM95.67 59.52V44.39C95.67 30.57 87.62 22.67 74.41 22.67C61.2 22.67 53.15 30.57 53.15 44.39V86.15C53.15 99.82 61.35 107.71 74.41 107.71C87.47 107.71 95.67 99.81 95.67 86.15V70.86H78.66V87.66C78.66 91.98 77.79 94.95 74.32 94.95C70.85 94.95 70.15 91.97 70.15 87.66V42.87C70.15 38.55 71.02 35.43 74.32 35.43C77.79 35.43 78.66 38.56 78.66 42.87V59.52H95.67Z" fill="#0F0F0F"/>
</svg>
